<svg width="24" height="23" viewBox="0 0 24 23" fill="none" xmlns="http://www.w3.org/2000/svg">
<path d="M22.0076 0.854949C22.4467 1.29406 22.4467 2.00683 22.0076 2.44594L2.38534 22.0682C1.94623 22.5073 1.23346 22.5073 0.794349 22.0682C0.355235 21.629 0.355235 20.9163 0.794349 20.4772L20.4166 0.854949C20.8557 0.415836 21.5684 0.415836 22.0076 0.854949Z" fill="#643519"/>
<path d="M22.4177 22.0681C22.8568 21.629 22.8568 20.9163 22.4177 20.4772L2.7955 0.854943C2.35638 0.41583 1.64362 0.41583 1.2045 0.854943C0.765392 1.29406 0.765392 2.00682 1.2045 2.44593L20.8267 22.0681C21.2658 22.5073 21.9786 22.5073 22.4177 22.0681Z" fill="#643519"/>
</svg>
