<svg width="70" height="70" viewBox="0 0 70 70" fill="none" xmlns="http://www.w3.org/2000/svg">
<path d="M45.0003 25L45.0294 24.9127C45.0193 24.6211 44.3238 23.7647 41.5 22C38.2997 20 32.8332 19.8333 30.5 20L28.0003 19C27.667 18.6667 27.2003 17.6 28.0003 16C29.0003 14 30.5003 12.5 32.5003 12C34.1003 11.6 34.8336 12.1667 35.0003 12.5C35.167 12.1667 35.7003 11.3 36.5003 10.5C37.5003 9.5 40.0003 9 42.0003 9.5C43.6003 9.9 45.3336 11.6667 46.0003 12.5L45.5003 13.5V14.5L47.0003 17C47.8336 17.1667 49.4003 18.1 49.0003 20.5C48.6003 22.9 46.8336 23.5 46.0003 23.5H45.5003L45.0294 24.9127C45.0308 24.9516 45.0199 24.9804 45.0003 25Z" fill="white"/>
<path d="M29.0785 50.652C29.0785 50.652 29.969 52.6443 29.969 53.3647C29.969 54.0852 29.5701 54.061 29.417 54.045C29.2638 54.0289 28.2846 53.8598 27.9623 55.9004C27.6399 57.941 27.386 57.7398 26.8823 57.8565C26.3786 57.9732 24.0938 57.619 24.0938 58.4965C24.0938 59.3739 30.6823 59.4463 32.3224 59.5268C33.9625 59.6073 41.498 59.4584 42.2395 59.225C42.9809 58.9915 43.3396 58.416 43.1502 58.0618C42.9608 57.7076 41.2401 57.4862 40.3616 57.5909C39.4831 57.6955 39.06 57.6231 39.0117 57.5748C38.9633 57.5265 39.6725 56.5605 40.0433 56.1902C40.414 55.8199 41.1071 54.5883 40.7364 53.9967C40.3656 53.405 39.6564 53.2561 38.9472 53.5579C38.238 53.8598 37.5449 54.4193 37.021 53.9282C36.4971 53.4372 37.3434 51.0947 37.4764 50.9257C37.6093 50.7566 38.4233 50.2495 38.4233 50.2495L28.6473 49.7947L29.0785 50.656V50.652Z" fill="#300E09"/>
<path d="M25.0019 31.5298C25.0019 31.5298 23.9703 31.4614 23.6318 30.9744C23.2933 30.4873 23.1603 29.1511 23.1241 29.0344C23.0878 28.9176 22.7533 28.6802 22.4834 28.7969C22.2134 28.9136 22.0441 29.7266 21.7902 29.8434C21.5364 29.9601 20.541 29.139 20.3718 28.7647C20.2026 28.3904 19.4087 28.3743 19.038 28.9981C18.6672 29.622 17.954 30.0969 18.0023 30.4511C18.0507 30.8053 19.0823 33.4738 20.9239 34.6048C22.7654 35.7358 23.3578 34.4519 23.3578 34.4519L24.9979 31.5338L25.0019 31.5298Z" fill="#300D08"/>
<path d="M40.7894 30.2257C40.7894 30.2257 45.9918 31.9805 46.3303 35.3896C46.6688 38.7987 45.754 40.7226 43.9971 41.5678C43.9971 41.5678 42.6673 42.4694 42.1273 42.5338C42.1273 42.5338 42.3086 46.3574 41.2246 48.2048C40.1407 50.0522 39.3992 50.8814 39.3992 50.8814C39.3992 50.8814 36.7396 51.1068 33.1371 50.8814C29.5345 50.656 27.4592 49.7786 27.4592 49.7786C27.4592 49.7786 27.3907 46.6069 27.3464 46.289C27.3464 46.289 26.7379 45.4558 26.7137 43.2502C26.6895 41.0446 26.6694 36.6776 26.7137 35.623C26.758 34.5685 27.5035 31.2118 29.2806 30.3585C29.2806 30.3585 31.1746 29.795 31.3761 28.0844L31.6461 27.7705L40.7814 30.2217L40.7894 30.2257Z" fill="#300D08"/>
<path d="M30.624 20.0709C24.5512 19.8375 27.1383 13.7277 30.9665 12.0775C32.0545 11.6147 33.7792 11.015 34.7705 11.9729L34.7262 11.9367C34.8955 12.0534 35.0607 12.1701 35.246 12.2586L34.9438 12.3713C35.1453 11.1156 36.1688 10.1899 37.2488 9.61832C39.445 8.53965 42.1529 8.95824 44.1799 10.21C45.0422 10.7292 45.82 11.4215 46.4043 12.2466C46.6662 12.5484 46.4244 12.8503 46.227 13.0676C46.1383 13.1964 45.828 13.6271 45.7958 13.6875C45.828 13.5989 45.8038 13.5909 45.8361 13.6754C45.8764 13.8042 45.9892 14.1584 46.0295 14.2952C46.1182 14.5689 46.2028 14.8466 46.2713 15.1244C46.3841 15.555 46.8153 15.9334 47.1296 16.3117C47.448 16.7021 47.9235 17.2696 48.27 17.6238C48.4554 17.8049 48.7334 18.1108 48.8342 18.3523C49.2533 19.1694 49.5595 20.1192 49.2815 21.049C48.8745 22.5825 47.3674 23.7094 45.7837 23.6209L45.9167 23.5605C45.6749 23.8503 45.3001 24.2206 45.3163 24.611L44.9294 24.7277C44.8246 24.1119 45.3122 23.6571 45.6668 23.2345C47.315 23.1178 48.7254 21.7855 48.7294 20.1072C48.7415 19.4672 48.7294 18.7025 48.3305 18.1591C47.6172 17.4266 46.7508 16.9154 45.9691 16.2513C45.4855 15.873 45.3122 15.1123 45.2316 14.4925C45.1873 14.263 45.1349 13.933 45.0946 13.7036C45.0422 13.4218 45.3243 13.1763 45.4654 13.0113C45.554 12.8986 45.8482 12.5967 45.9328 12.4881C45.9409 12.48 45.9086 12.5001 45.9328 12.6169C45.965 12.6813 45.9328 12.6249 45.9126 12.6008C45.3686 11.8401 44.6594 11.2202 43.8535 10.7413C41.9958 9.62235 39.5216 9.29633 37.5551 10.2543C36.5758 10.7211 35.8989 11.6227 35.3266 12.5042L35.2098 12.7658L35.0244 12.6169C34.8592 12.4881 34.6779 12.3874 34.4965 12.2828C34.3192 12.0976 34.0573 12.0131 33.7631 12.0051C31.2284 12.0212 27.1222 15.394 27.8475 18.1028C28.2666 19.1251 29.5964 19.5316 30.6361 19.6845L30.62 20.087L30.624 20.0709Z" fill="#3A1F0C"/>
<path d="M33.5842 19.2257C33.5842 19.2257 30.1146 19.4069 29.4819 19.7449C28.8493 20.083 27.8136 21.0933 27.9265 22.3772C28.0393 23.6611 29.5706 25.259 30.0219 25.9111C30.4732 26.5631 31.4404 28.2294 32.3873 30.1855C33.3343 32.1416 34.37 32.5239 35.5184 32.5481C36.6669 32.5722 39.0323 31.7834 40.2936 30.3666C41.5549 28.9498 42.925 29.1189 43.3118 29.0666C43.6987 29.0142 45.3912 28.7808 45.4234 28.0523C45.4556 27.3238 45.9996 26.869 46.2334 26.6677C46.4671 26.4665 46.3019 25.3677 44.5933 23.7819C42.8847 22.1961 40.3339 19.2016 33.5761 19.2257H33.5842Z" fill="#300D08"/>
<path d="M45.6703 26.2813C45.3681 26.5389 44.8644 27.0541 44.8241 27.8913C44.8201 28.016 44.5622 28.495 43.2606 28.664C43.2162 28.6721 43.1558 28.6721 43.0833 28.6721C42.5191 28.6962 41.1933 28.7486 39.9925 30.0969C38.8198 31.417 36.6881 31.6827 35.6283 31.6827C35.6283 31.6827 33.6941 31.9483 32.7552 30.0083C31.8485 28.1287 30.8652 26.4061 30.3615 25.6776C30.2567 25.5286 30.1036 25.3395 29.9223 25.1101C29.3581 24.4017 28.3668 23.2304 28.3386 22.3409C28.3185 21.7372 28.3991 21.4112 29.0398 21.3226C29.8094 21.214 29.7893 22.027 30.2567 21.9143C35.3946 20.6827 40.4398 22.6549 41.9146 24.0394C41.9751 24.0958 42.8213 25.1181 43.6232 25.5568C44.7515 26.1807 45.6743 26.1565 45.6743 26.2813H45.6703Z" fill="#FFD282"/>
<path d="M32.0078 20.071C32.0078 20.071 35.0059 19.4672 38.0241 20.2803C41.0424 21.0933 41.5179 22.1035 41.6509 22.2162C41.6509 22.2162 40.6072 22.6026 40.1035 22.4698C39.5998 22.337 38.0604 21.5763 36.4203 21.3227C34.7802 21.0691 33.9179 21.2543 33.2248 21.0007C32.5317 20.7471 32.0078 20.071 32.0078 20.071Z" fill="#FEFEFE"/>
<path d="M33.952 25.0699C33.7304 25.6575 33.412 25.8588 32.7995 25.73C32.3683 25.6374 32.1145 25.1946 32.183 24.5949C32.6585 24.6352 32.9244 24.4178 33.1179 23.9027C33.1582 23.794 33.1864 23.6773 33.2025 23.5605C33.2992 23.5605 33.3959 23.5807 33.4926 23.6088C34.0044 23.7658 34.1696 24.4903 33.952 25.0699Z" fill="#34110C"/>
<path d="M33.1992 23.5565C33.1831 23.6732 33.1549 23.7899 33.1146 23.8986C32.9212 24.4138 32.6512 24.6311 32.1797 24.5909C32.1958 24.4782 32.216 24.3615 32.2522 24.2447C32.3973 23.7698 32.7882 23.5444 33.1992 23.5565Z" fill="white"/>
<path d="M40.3247 26.9455C39.9419 27.3762 39.3375 27.4607 38.9748 27.1427C38.729 26.9334 38.6524 26.5913 38.7451 26.2693C39.0352 26.2774 39.3576 26.1445 39.5913 25.8829C39.7203 25.734 39.8049 25.569 39.8452 25.3959C40.0306 25.3999 40.2119 25.4643 40.3529 25.5931C40.7156 25.9151 40.7035 26.5269 40.3247 26.9495V26.9455Z" fill="#34110C"/>
<path d="M39.8462 25.3918C39.8059 25.5649 39.7213 25.7299 39.5923 25.8789C39.3586 26.1405 39.0362 26.2773 38.7461 26.2652C38.7824 26.0922 38.875 25.9272 39.004 25.7782C39.2337 25.5166 39.5561 25.3798 39.8462 25.3918Z" fill="white"/>
<path d="M38.3159 28.1046C38.3159 28.1046 35.354 28.0483 34.1814 26.9575C34.1814 26.9575 33.9557 27.5774 34.0807 28.9941C34.2056 30.4109 34.2499 31.2561 35.3097 31.1313C36.3695 31.0066 36.7161 30.3666 36.7282 30.2418C36.7282 30.2418 35.8497 30.761 35.1163 30.0728C34.3829 29.3845 35.0155 28.5192 35.1284 28.3944C35.2412 28.2696 37.8001 28.5755 38.3159 28.1006V28.1046Z" fill="#34110C"/>
<path d="M43.0572 31.7672C43.0572 31.7672 45.5596 33.4053 45.8458 35.4299C46.1319 37.4544 45.7652 39.9659 44.2782 40.7387C42.7912 41.5115 41.7395 41.2659 41.1794 40.0021C41.1794 40.0021 40.6515 38.4888 40.7522 37.7925C40.7522 37.7925 40.9456 37.386 41.2156 37.2169C41.4856 37.0479 42.2392 36.42 42.2392 36.42L42.1264 36.2147C42.1264 36.2147 40.9416 37.1726 40.4137 37.3618C39.8858 37.551 39.2854 37.563 39.1524 37.4624C39.0195 37.3618 39.2089 37.0479 39.5232 36.6092C39.8375 36.1704 42.4528 32.6728 42.622 32.3468C42.7912 32.0208 42.9524 31.6948 43.0572 31.7672Z" fill="white"/>
<path d="M40.4665 37.9615C40.4665 37.9615 40.4585 39.9377 41.4296 40.8272C42.4008 41.7167 41.6754 41.8697 41.4135 41.9904C41.1516 42.1112 40.0595 42.3124 39.4913 41.765C38.9232 41.2177 38.4557 39.9619 38.625 38.8631C38.7942 37.7643 39.9951 37.4946 40.4665 37.9615Z" fill="white"/>
<path d="M32.6992 22.7434C32.6992 22.7434 33.1022 22.683 33.4568 22.8199C33.7147 22.9165 33.896 23.001 34.0129 23.0855L34.0572 23.1137C34.0895 23.1459 34.1177 23.0896 34.1177 22.9889L34.0854 22.8521C34.0451 22.6871 33.9525 22.5583 33.614 22.4536C32.9934 22.2685 32.7758 22.6428 32.6992 22.7434Z" fill="#290705"/>
<path d="M40.942 25.3918C40.942 25.3918 40.672 25.09 40.3134 24.9612C40.0514 24.8686 39.858 24.8203 39.717 24.8082H39.6646C39.6162 24.8082 39.6324 24.7478 39.7009 24.6673L39.8137 24.5828C39.9507 24.4822 40.1079 24.4419 40.4302 24.5828C41.0266 24.8364 40.9501 25.263 40.946 25.3918H40.942Z" fill="#290705"/>
<path d="M42.0035 30.9783C42.0035 30.9783 42.7611 31.2963 42.5797 31.7149C42.3984 32.1335 40.3836 35.0354 40.0974 35.297C39.8113 35.5586 38.3647 37.6636 38.2438 38.199C38.1229 38.7343 37.5104 38.6055 37.1679 38.4244C36.8253 38.2432 35.1732 36.9553 34.9878 36.7379C34.9878 36.7379 34.7299 36.2791 35.2054 36.2952C35.6809 36.3113 36.8253 36.4562 37.0631 36.3636C37.3008 36.271 38.4493 34.8181 38.5903 34.6208C38.7314 34.4236 40.8913 31.2238 40.9961 31.1152C41.1008 31.0065 41.5078 30.6402 42.0035 30.9864V30.9783Z" fill="#E03232"/>
<path d="M40.6151 30.8495C40.6151 30.8495 37.6734 35.3373 37.4558 35.5586C37.2382 35.78 34.9534 36.0819 34.5504 35.7116C34.1475 35.3413 34.901 33.8561 35.0904 33.5784C35.5901 32.8459 38.1812 32.0409 38.5036 31.8839C38.8259 31.727 40.4741 30.7006 40.6151 30.8536V30.8495Z" fill="#FEFEFE"/>
<path d="M31.852 29.775C31.852 29.775 32.7305 31.5056 34.5761 32.4193C34.5761 32.4193 35.3578 32.9264 35.0717 33.1277C34.7856 33.3289 34.4632 33.4617 34.4955 33.6831C34.5277 33.9045 34.2094 34.963 33.8185 34.8865C33.4276 34.8101 32.0454 34.1862 31.6384 32.3308C31.2314 30.4753 31.167 29.6059 31.3684 29.4771C31.5699 29.3483 31.848 29.775 31.848 29.775H31.852Z" fill="#FEFEFE"/>
<path d="M38.2645 38.9396C38.2645 38.9396 38.2484 39.7486 38.3652 40.2959C38.4821 40.8433 39.1107 41.761 38.9939 41.918C38.8931 42.0508 37.7608 41.0768 37.5109 40.9198C37.2611 40.7628 35.5404 39.817 34.2348 39.8492C32.9292 39.8814 31.1722 40.0947 30.5275 40.0625C29.8827 40.0303 28.9156 39.5433 28.7464 39.342C28.7464 39.342 28.702 39.0402 29.7618 38.9919C30.8216 38.9436 32.4093 37.9454 32.6471 37.3699C32.8849 36.7943 33.0622 36.0859 32.9977 35.7478C32.9332 35.4097 33.2516 35.3775 33.3483 35.3896C33.8842 35.446 34.8312 37.1123 35.6089 37.6395C36.1811 38.0299 37.1321 38.9436 38.2726 38.9315L38.2645 38.9396Z" fill="#FFD282"/>
<path d="M38.6895 42.1635C38.6895 42.1635 40.0193 42.7995 41.0792 42.6425C42.139 42.4855 41.5869 45.9389 40.9099 47.1987C40.2329 48.4585 39.3907 49.4928 39.1651 49.5613C38.9394 49.6297 38.6452 48.378 38.6009 47.569C38.5566 46.76 38.2987 43.0571 38.3309 42.7069C38.3631 42.3567 38.5163 42.083 38.6895 42.1595V42.1635Z" fill="#FDFDFD"/>
<path d="M31.56 40.4248C32.5392 40.3563 33.2404 40.1953 34.3566 40.2155C35.4728 40.2356 37.4474 41.2177 37.5844 41.3384C37.7214 41.4592 38.0236 41.5316 37.9712 42.4372C37.9189 43.3428 38.4266 49.2393 38.4951 49.525C38.5636 49.8108 38.624 50.1851 38.6442 50.2736C38.6643 50.3622 38.6724 50.6238 38.2654 50.6359C37.8584 50.648 34.4291 50.8854 32.0395 50.6359C29.6499 50.3863 28.1871 49.8349 27.9937 49.69C27.8003 49.5451 27.8688 49.1467 27.8487 48.9615C27.8285 48.7764 27.7882 44.7636 27.9373 43.1416C28.0864 41.5195 28.4934 40.2718 28.57 40.1309C28.6465 39.9901 28.7674 39.7647 29.2792 39.978C29.791 40.1913 31.0764 40.461 31.56 40.4288V40.4248Z" fill="#E03232"/>
<path d="M27.4638 44.2484C27.4638 44.2484 27.4396 41.761 28.0158 40.6381C28.0158 40.6381 28.443 39.7285 28.31 39.4105C28.177 39.0925 27.5565 38.9476 27.3187 39.1851C27.0809 39.4226 27.0729 40.0344 27.093 41.3223C27.1172 42.6264 27.2059 44.2806 27.4638 44.2484Z" fill="white"/>
<path d="M32.6296 35.8324C32.6296 38.0944 29.7161 39.1408 27.4514 39.1408C25.1867 39.1408 22.7891 37.4866 22.7891 35.2246C22.7891 32.9627 24.2881 30.7168 27.9712 30.9945C30.6752 31.1957 32.6296 33.5704 32.6296 35.8324Z" fill="#A75B1E" stroke="#2B0907" stroke-width="1.4" stroke-miterlimit="10"/>
<path d="M31.0369 30.3827C31.0369 30.3827 31.1457 31.4372 31.1618 31.7149C31.1779 31.9926 30.8838 31.9443 30.783 31.884C30.6823 31.8236 29.7353 30.9542 29.4734 30.9301C29.2114 30.9059 29.3122 30.7006 29.4734 30.6C29.6345 30.4994 30.4123 30.1009 30.5735 30.1291C30.7347 30.1573 31.0127 30.1251 31.0369 30.3827Z" fill="#E03232"/>
<path d="M22.7521 29.8755C22.7521 29.8755 23.4935 30.6161 23.3444 31.9524C23.1953 33.2886 22.6352 34.3834 22.196 34.3995C21.7567 34.4156 19.7298 33.506 19.3913 32.5601C19.0528 31.6143 18.6297 30.8898 18.9682 29.8755C19.3067 28.8613 19.5767 28.982 19.7943 29.135C20.0119 29.2879 20.842 30.0285 21.1966 30.1975C21.5512 30.3666 21.922 30.4511 22.0428 30.1653C22.1637 29.8796 22.3128 29.5053 22.7521 29.8796V29.8755Z" fill="#FFD282"/>
<path d="M30.0414 50.8895C30.1784 50.7808 31.8991 51.0585 32.4592 51.1189C33.1685 51.1954 33.1644 52.2297 33.0959 52.9945C33.0274 53.7592 33.0516 55.7515 33.0637 55.828C33.0758 55.9045 32.9186 55.9648 32.7373 55.9729C32.556 55.9809 31.5526 54.701 31.2745 54.4193C30.9965 54.1375 30.3638 53.7431 30.384 53.3165C30.4041 52.8898 29.8883 51.0142 30.0455 50.8854L30.0414 50.8895Z" fill="#FEFEFD"/>
<path d="M36.492 50.9901C35.8835 51.0344 34.6343 51.0907 34.2515 51.135C33.8687 51.1793 33.5866 51.2799 33.498 51.6985C33.4093 52.117 33.4295 53.9604 33.768 54.9143C34.1065 55.8682 34.0823 56.2305 34.3321 56.2184C34.582 56.2063 36.4034 53.7109 36.5847 52.4592C36.766 51.2074 37.0239 50.9619 36.5847 50.9861" fill="#FEFEFD"/>
</svg>
