<svg width="135" height="66" viewBox="0 0 135 66" fill="none" xmlns="http://www.w3.org/2000/svg">
<path d="M49.2607 8.92529H54.178C57.7131 8.92529 59.7735 12.7327 59.7735 16.8381C59.7735 20.9435 57.7131 24.6738 54.178 24.6738H53.3096V31.297H49.2607V8.92529ZM53.51 20.3989C54.8357 20.3989 55.4009 18.4926 55.4009 16.91C55.4009 15.3275 54.8357 13.3544 53.51 13.3544H53.099V20.3989H53.51Z" fill="white"/>
<path d="M61.5518 18.0503H65.1536V23.8256L68.5962 18.0503H71.078V31.2965H67.4504V25.5469L64.0592 31.2965H61.5569V18.0503H61.5518Z" fill="white"/>
<path d="M75.502 24.4679L72.9535 18.0503H76.9099L78.5952 22.7466H79.3659V18.0503H82.9935V22.7466H83.7642L85.4495 18.0503H89.406L86.8574 24.4679L89.5704 31.2965H85.5677L83.718 26.1892H82.9935V31.2965H79.3659V26.1892H78.6415L76.7917 31.2965H72.7891L75.502 24.4679Z" fill="white"/>
<path d="M90.2896 24.6732C90.2896 20.3879 92.0468 17.8188 94.9448 17.8188C95.8594 17.8188 96.7226 18.0758 97.519 18.5896V21.7958C97.0257 21.4618 96.5376 21.3077 96.0186 21.3077C94.6159 21.3077 93.9377 22.3867 93.9377 24.668C93.9377 26.9494 94.6159 28.0284 96.0186 28.0284C96.5582 28.0284 97.072 27.8486 97.5858 27.4889V30.7208C96.7688 31.2603 95.9005 31.5173 94.9859 31.5173C92.0366 31.5173 90.2793 28.9482 90.2793 24.6629L90.2896 24.6732Z" fill="white"/>
<path d="M104.003 26.1892H103.279V31.2965H99.5332V18.0503H103.279V22.7466H104.05L105.756 18.0503H109.712L107.112 24.4679L109.871 31.2965H105.869L103.998 26.1892H104.003Z" fill="white"/>
<path d="M111.587 18.0503H115.189V23.8256L118.631 18.0503H121.113V31.2965H117.486V25.5469L114.094 31.2965H111.592V18.0503H111.587Z" fill="white"/>
<path d="M123.451 18.0506H127.053V23.826L130.496 18.0506H132.977V31.2969H129.35V25.5473L125.959 31.2969H123.456V18.0506H123.451ZM127.546 12.5322C127.454 13.5856 127.685 14.1764 128.271 14.1764C128.857 14.1764 129.113 13.6369 129.021 12.5322H131.056C131.385 14.9472 130.331 16.4064 128.271 16.4064C126.21 16.4064 125.137 14.9677 125.486 12.5322H127.546Z" fill="white"/>
<path d="M55.5605 50.4003L49.4615 36.7173H56.5625L60.0153 44.9024L63.3449 36.7173H70.4047L64.5061 50.4003L70.7644 64.8077H63.6223L60.0102 55.8981L56.2799 64.8077H49.0967L55.5554 50.4003H55.5605Z" fill="white"/>
<path d="M87.541 42.9761H83.5281L82.968 57.3013C82.7676 63.1589 79.5151 65.6458 73.2568 64.726V58.6681C75.3429 58.8685 76.0674 58.2262 76.1445 56.1401L76.946 36.7178H94.4827V64.8082H87.541V42.9812V42.9761Z" fill="white"/>
<path d="M98.8965 36.7175H112.698V42.4158H105.838V46.7473H111.978V52.1218H105.838V59.0635H112.821V64.8029H98.8965V36.7124V36.7175Z" fill="white"/>
<path d="M116.674 36.7178H132.967V42.2156H123.538V47.0712H125.542C131.359 47.0712 134.611 50.2415 134.611 55.9397C134.611 61.638 131.359 64.8082 125.542 64.8082H116.674V36.7178ZM124.458 59.5878C126.827 59.5878 127.988 58.3444 127.988 55.8575C127.988 53.3706 126.827 52.1272 124.458 52.1272H123.456V59.593H124.458V59.5878Z" fill="white"/>
<path d="M20.8111 65.9846C19.9684 65.9846 19.3416 65.9743 18.9562 65.9589C18.6633 65.9435 18.2471 65.9332 17.7487 65.9126C9.27585 65.63 7.77036 65.1471 7.77036 63.9139C7.77036 62.3981 9.82049 62.3981 10.6991 62.3981H11.475C11.7781 62.4033 11.8655 62.393 11.8912 62.3878C11.9785 62.3673 12.0556 62.3519 12.1327 62.3416C12.1892 62.3313 12.2406 62.3262 12.2817 62.3108C12.2971 62.2799 12.4769 61.9922 12.7082 60.4867C13.1192 57.8765 14.3832 57.486 15.0974 57.486C15.1539 57.486 15.2053 57.486 15.2464 57.4912C15.2464 57.4552 15.2516 57.4141 15.2516 57.3576C15.2516 56.8283 14.6247 55.1893 14.1828 54.1924L14.0698 53.9664C13.0781 53.6889 12.5335 53.4628 12.5078 53.4525L12.071 53.2676L12.0607 52.7949C12.0248 51.0684 11.9683 49.1211 11.9374 48.561C11.6805 48.1037 11.141 46.8551 11.1153 44.4556C11.0999 43.1864 11.0896 41.3624 11.0845 39.6154C9.35292 39.3636 7.30792 38.2281 6.05934 34.7187C5.4479 34.693 4.77993 34.4567 4.076 34.0199C1.49663 32.4425 0.0990463 28.8304 0.0116971 28.2138C-0.0756521 27.6126 0.340541 27.1553 0.782425 26.6775C1.01364 26.4206 1.25514 26.1585 1.41956 25.8862C1.78437 25.2747 2.42664 24.8996 3.10488 24.8996C3.69578 24.8996 4.19932 25.1925 4.40998 25.6601C4.50247 25.8399 4.94949 26.2459 5.27834 26.4719C5.29375 26.4411 5.30917 26.4103 5.31944 26.3794C5.51469 25.9581 5.72022 25.5214 6.14669 25.3313C6.30084 25.2645 6.4704 25.2285 6.63996 25.2285C7.22057 25.2285 7.82174 25.6293 7.95533 26.102C7.96561 26.1431 7.9913 26.2613 8.01699 26.4411C8.17114 27.4739 8.33556 28.1213 8.49998 28.3628C8.54622 28.4296 8.7312 28.5632 9.13712 28.6659C10.0055 28.3679 11.5366 27.9466 13.1757 27.9466C13.4121 27.9466 13.6484 27.9569 13.8745 27.9723C14.1725 27.7 14.4757 27.4893 14.7943 27.3403L14.8456 27.3146L14.9022 27.2992C14.9022 27.2992 16.6029 26.7597 16.9934 25.3364C16.2895 24.0467 15.7397 23.1475 15.4468 22.7313C15.3286 22.5618 15.1488 22.3357 14.9381 22.0685C14.08 20.9946 12.7801 19.3658 12.6516 17.8706C12.5489 16.7042 13.0473 15.6663 13.6947 14.9007C12.3742 14.2482 11.6034 13.1538 11.4853 11.7305C11.2592 8.91475 13.7666 5.36427 16.9626 3.98723C17.8155 3.62242 19.0898 3.14457 20.2921 3.14457C20.9704 3.14457 21.5561 3.29358 22.0545 3.58645C22.6043 2.51771 23.5908 1.57228 24.9165 0.873492C26.1034 0.292877 27.3982 0 28.7855 0C30.7329 0 32.7522 0.585753 34.4786 1.6545C35.6861 2.38412 36.7343 3.34496 37.505 4.42912C37.839 4.83503 38.0548 5.49272 37.2738 6.37649C37.2738 6.37649 37.0683 6.66423 36.9964 6.77213C37.0529 6.95196 37.1197 7.15235 37.1505 7.25512C37.2944 7.70214 37.3971 8.0464 37.4742 8.3701C37.5359 8.60132 37.8236 8.91989 38.0959 9.22304C38.209 9.34636 38.3169 9.46968 38.4196 9.59299C38.8307 10.0914 39.4216 10.8005 39.8326 11.2218C40.0639 11.4479 40.4955 11.9103 40.6907 12.3522C41.4512 13.8423 41.6516 15.1422 41.3022 16.3137C40.7421 18.4358 38.7742 20.0132 36.5853 20.116C36.5082 20.2085 36.4312 20.3061 36.3746 20.3986C37.1813 21.4108 37.6129 22.3717 37.5564 23.0756C37.5256 23.4815 37.3458 23.7179 37.1967 23.8463C36.9296 24.0775 36.4466 24.4886 36.4157 25.0949C36.3695 26.1277 35.2494 26.7956 33.0862 27.0782C32.9988 27.0885 32.8858 27.0937 32.7471 27.0988C32.3309 27.1142 31.6732 27.1399 30.9384 27.5098C32.9166 28.3576 37.1916 30.6082 37.5616 34.3539C37.9983 38.7522 36.873 41.6399 34.2269 42.945C33.8621 43.1916 32.968 43.7671 32.2178 44.0805C32.2333 45.4781 32.1511 49.1159 30.9539 51.1558C29.5563 53.545 28.5851 54.6446 28.544 54.6908L28.3488 54.9067L28.0611 54.9323C28.0251 54.9323 27.2646 54.9991 25.9904 55.0351C25.7026 55.8058 25.3635 57.188 25.492 57.5888C25.5228 57.6093 25.5433 57.6093 25.5742 57.6093C25.79 57.6093 26.1702 57.4141 26.5093 57.2445C26.7148 57.1418 26.9204 57.039 27.1259 56.9465C27.5164 56.7769 27.9172 56.6947 28.3077 56.6947C29.1452 56.6947 29.8748 57.0955 30.3116 57.7892C31.0566 58.9761 29.9262 60.8926 29.325 61.4938C29.1812 61.6377 29.0013 61.8535 28.8215 62.0744C28.9243 62.0641 29.027 62.0539 29.1349 62.0436C29.3456 62.0179 29.5871 62.0076 29.8491 62.0076C30.1574 62.0076 32.8961 62.0385 33.4202 63.0353C33.6052 63.3847 33.6154 63.806 33.4459 64.2068C33.1992 64.8028 32.5981 65.3063 31.8325 65.553C30.8408 65.8664 23.5292 66 20.7854 66L20.8111 65.9846Z" fill="white"/>
<path d="M40.0433 12.6553C39.9148 12.347 39.5603 11.9565 39.3239 11.7253C38.882 11.2731 38.2757 10.5435 37.8698 10.0502C37.469 9.56722 36.9244 9.08423 36.7754 8.53445C36.688 8.17991 36.5801 7.82538 36.4671 7.47598C36.4106 7.30642 36.2667 6.85426 36.2205 6.6847C36.2102 6.66415 36.2102 6.65387 36.205 6.64359C36.3129 6.47403 36.6161 6.0527 36.7137 5.91397C36.9655 5.63651 37.2738 5.25114 36.9398 4.86578C36.1999 3.81245 35.2082 2.92868 34.1087 2.26586C31.5241 0.667883 28.0713 0.133512 25.271 1.51055C23.9864 2.18879 22.779 3.26781 22.4141 4.7065C22.296 4.62942 22.1778 4.55749 22.0648 4.48042C22.0596 4.47528 22.0596 4.47014 22.0545 4.47014C20.7853 3.31405 18.6324 4.06936 17.2657 4.64998C12.7955 6.5768 9.66631 13.2616 15.082 14.6181C14.2855 15.1678 13.263 16.3445 13.3915 17.7986C13.5354 19.4377 15.4879 21.4775 16.0633 22.3099C16.4282 22.8392 17.055 23.8873 17.7744 25.2181C17.4352 27.2991 15.1282 27.9928 15.1282 27.9928C14.7685 28.1623 14.45 28.4244 14.1571 28.7275C12.1789 28.4912 10.2058 29.0564 9.19873 29.4212C8.7774 29.339 8.18137 29.1591 7.91419 28.7738C7.48258 28.1469 7.31302 26.4462 7.26678 26.2972C7.22053 26.1481 6.79406 25.845 6.4498 25.994C6.10555 26.143 5.88974 27.1809 5.56604 27.3299C5.24233 27.4789 3.9732 26.4307 3.7574 25.9529C3.54159 25.475 2.52937 25.4545 2.05666 26.2509C1.58394 27.0473 0.679622 27.6536 0.74128 28.1058C0.808076 28.558 2.11831 31.9646 4.46646 33.4084C5.41189 33.989 6.10041 34.0661 6.5834 33.9582C7.83198 37.9865 10.0876 38.9165 11.8243 38.9525C11.8243 40.8896 11.8398 43.0271 11.8552 44.4555C11.886 47.2712 12.6619 48.3348 12.6619 48.3348C12.7184 48.7356 12.8057 52.7896 12.8057 52.7896C12.8057 52.7896 13.4326 53.0517 14.5887 53.3548L14.861 53.8995C14.861 53.8995 15.9966 56.4429 15.9966 57.3626C15.9966 58.2824 15.4879 58.2515 15.2926 58.231C15.0974 58.2104 13.8488 57.9946 13.4377 60.5997C13.0267 63.2047 12.703 62.9478 12.0607 63.0968C11.4133 63.2458 8.50508 62.7937 8.50508 63.9138C8.50508 65.0339 16.906 65.1264 18.9973 65.2292C21.0885 65.3268 30.6969 65.1418 31.6423 64.8438C32.5878 64.5458 33.0451 63.811 32.8036 63.3589C32.5672 62.9067 30.3681 62.6241 29.2479 62.7577C28.1278 62.8913 27.5883 62.7988 27.5266 62.7372C27.465 62.6755 28.3693 61.4423 28.842 60.9696C29.3147 60.4969 30.1985 58.9246 29.7258 58.1693C29.2531 57.414 28.3488 57.2188 27.4444 57.6093C26.5401 57.9946 25.6563 58.7088 24.9884 58.082C24.3564 57.4911 25.2864 54.7833 25.533 54.3105C27.0848 54.2746 28.0302 54.1975 28.0302 54.1975C28.0302 54.1975 28.9807 53.1339 30.3578 50.7806C31.7348 48.4273 31.5087 43.5409 31.5087 43.5409C32.1973 43.4536 33.8929 42.3077 33.8929 42.3077C36.1331 41.2287 37.2995 38.7727 36.8679 34.4206C36.4363 30.0686 29.8029 27.8283 29.8029 27.8283L29.438 27.7307C30.9692 26.2252 32.5518 26.4102 33.0194 26.3485C33.5126 26.2817 35.6707 25.9837 35.7118 25.0537C35.7529 24.1288 36.4465 23.5431 36.7445 23.2862C36.9963 23.0704 36.8833 22.0581 35.5782 20.5527C35.609 20.1211 35.979 19.7151 36.2667 19.3863C38.25 19.4428 40.1152 18.0247 40.6239 16.103C40.9784 14.9161 40.5879 13.7035 40.0535 12.6604L40.0433 12.6553Z" fill="#300D08"/>
<path d="M39.9146 14.8905C39.9095 17.0331 38.1111 18.7339 36.0096 18.8829C35.6705 19.2888 35.2389 19.7152 35.095 20.2291C34.8278 19.9824 34.5247 19.705 34.463 19.6073C34.3397 19.4275 31.0256 16.8276 30.8354 16.6837C30.6402 16.5398 27.0743 14.7261 25.019 14.3715C22.9637 14.0221 17.9232 14.2379 17.2706 14.3715C17.1113 14.4075 16.9675 14.4332 16.839 14.4589C16.8442 14.3921 16.8442 14.3407 16.8442 14.3407C15.5185 14.1454 13.8229 13.6316 13.2885 12.3214C12.3637 8.86339 17.5995 4.5576 20.8314 4.53704C21.2065 4.55246 21.5405 4.66036 21.7665 4.89672C21.9978 5.03031 22.2341 5.15876 22.4448 5.32319L22.676 5.5133L22.8301 5.17932C23.5598 4.05919 24.423 2.9031 25.6716 2.30707C28.1841 1.08932 31.3338 1.50038 33.7077 2.92879C34.7096 3.52482 35.5934 4.30069 36.2819 5.24097C36.1381 5.41567 35.8554 5.70855 35.7578 5.83187C35.578 6.03739 35.2183 6.35082 35.2851 6.71563C35.3365 7.00851 35.3982 7.42984 35.4598 7.72272C35.5574 8.514 35.7784 9.47998 36.395 9.96297C37.3969 10.8108 38.4965 11.4685 39.4059 12.4036C39.9146 13.1024 39.9352 14.0735 39.9146 14.8905Z" fill="white"/>
<path d="M36.01 22.7879C35.6246 23.1167 34.9823 23.7744 34.931 24.8431C34.9258 25.0024 34.597 25.6139 32.9373 25.8297C32.8808 25.8399 32.8037 25.8399 32.7113 25.8399C31.9919 25.8708 30.3014 25.9376 28.7703 27.6589C27.2751 29.3442 24.557 29.6833 23.2056 29.6833C23.2056 29.6833 20.7393 30.0224 19.5421 27.5458C18.386 25.1463 17.1323 22.9472 16.49 22.0171C16.3564 21.827 16.1612 21.5855 15.9299 21.2927C15.2106 20.3883 13.9466 18.8931 13.9106 17.7576C13.8849 16.9869 13.9877 16.5707 14.8047 16.4576C15.7861 16.3189 15.7604 17.3568 16.3564 17.2129C22.9076 15.6407 29.3406 18.1584 31.2212 19.9259C31.2983 19.9978 32.3773 21.3029 33.3998 21.863C34.8385 22.6594 36.0151 22.6286 36.0151 22.7879H36.01Z" fill="#FFD282"/>
<path d="M18.5859 14.8592C18.5859 14.8592 22.4087 14.0885 26.2572 15.1264C30.1058 16.1643 30.7121 17.454 30.8816 17.5979C30.8816 17.5979 29.5508 18.0912 28.9086 17.9216C28.2663 17.752 26.3035 16.7809 24.2123 16.4572C22.121 16.1335 21.0214 16.3699 20.1377 16.0462C19.2539 15.7225 18.5859 14.8592 18.5859 14.8592Z" fill="#FEFEFE"/>
<path d="M21.0677 21.2359C20.7851 21.9861 20.3791 22.243 19.5981 22.0786C19.0484 21.9604 18.7247 21.3952 18.812 20.6296C19.4183 20.681 19.7574 20.4035 20.0041 19.7458C20.0554 19.6071 20.0914 19.4581 20.112 19.3091C20.2353 19.3091 20.3586 19.3348 20.4819 19.3707C21.1345 19.5711 21.3451 20.496 21.0677 21.2359Z" fill="#34110C"/>
<path d="M20.1076 19.3092C20.087 19.4582 20.0511 19.6072 19.9997 19.7459C19.753 20.4036 19.4088 20.6811 18.8076 20.6297C18.8282 20.4858 18.8539 20.3368 18.9001 20.1878C19.0851 19.5815 19.5835 19.2938 20.1076 19.3092Z" fill="white"/>
<path d="M29.1916 23.6359C28.7035 24.1857 27.9328 24.2936 27.4703 23.8877C27.1569 23.6205 27.0593 23.1838 27.1774 22.7727C27.5474 22.783 27.9584 22.6134 28.2565 22.2794C28.4209 22.0893 28.5288 21.8787 28.5802 21.6577C28.8165 21.6629 29.0477 21.7451 29.2276 21.9095C29.69 22.3205 29.6746 23.1015 29.1916 23.6411V23.6359Z" fill="#34110C"/>
<path d="M28.5805 21.6523C28.5291 21.8732 28.4212 22.0839 28.2568 22.274C27.9587 22.608 27.5477 22.7827 27.1777 22.7673C27.224 22.5464 27.3422 22.3357 27.5066 22.1456C27.7995 21.8116 28.2105 21.6369 28.5805 21.6523Z" fill="white"/>
<path d="M26.6329 25.1157C26.6329 25.1157 22.8563 25.0438 21.3611 23.6514C21.3611 23.6514 21.0733 24.4426 21.2326 26.2513C21.3919 28.0599 21.4484 29.1389 22.7998 28.9797C24.1511 28.8204 24.593 28.0034 24.6084 27.8441C24.6084 27.8441 23.4883 28.507 22.5531 27.6283C21.618 26.7497 22.4247 25.645 22.5686 25.4857C22.7124 25.3264 25.9752 25.7169 26.6329 25.1106V25.1157Z" fill="#34110C"/>
<path d="M32.6754 29.7909C32.6754 29.7909 35.8662 31.8821 36.231 34.4666C36.5958 37.0511 36.1283 40.2573 34.2323 41.2439C32.3363 42.2304 30.9952 41.917 30.281 40.3036C30.281 40.3036 29.6079 38.3716 29.7364 37.4827C29.7364 37.4827 29.983 36.9638 30.3273 36.748C30.6715 36.5322 31.6324 35.7306 31.6324 35.7306L31.4885 35.4685C31.4885 35.4685 29.9779 36.6914 29.3048 36.9329C28.6317 37.1744 27.8661 37.1898 27.6965 37.0614C27.5269 36.9329 27.7684 36.5322 28.1692 35.9721C28.57 35.412 31.9047 30.9469 32.1205 30.5308C32.3363 30.1146 32.5418 29.6984 32.6754 29.7909Z" fill="white"/>
<path d="M29.3763 37.6991C29.3763 37.6991 29.3661 40.222 30.6044 41.3575C31.8427 42.4931 30.9178 42.6883 30.5838 42.8425C30.2498 42.9966 28.8574 43.2535 28.1329 42.5547C27.4084 41.8559 26.8124 40.2528 27.0282 38.8501C27.244 37.4474 28.7752 37.1031 29.3763 37.6991Z" fill="white"/>
<path d="M19.4697 18.2662C19.4697 18.2662 19.9835 18.1891 20.4357 18.3638C20.7645 18.4871 20.9958 18.595 21.1448 18.7029L21.2013 18.7389C21.2424 18.78 21.2784 18.7081 21.2784 18.5796L21.2373 18.4049C21.1859 18.1942 21.0677 18.0298 20.6361 17.8962C19.8448 17.6599 19.5674 18.1377 19.4697 18.2662Z" fill="#290705"/>
<path d="M29.9827 21.6521C29.9827 21.6521 29.6384 21.2667 29.1811 21.1023C28.8472 20.9841 28.6005 20.9225 28.4207 20.9071H28.3539C28.2922 20.9071 28.3128 20.83 28.4001 20.7272L28.544 20.6193C28.7187 20.4909 28.9191 20.4395 29.3302 20.6193C30.0906 20.943 29.993 21.4877 29.9878 21.6521H29.9827Z" fill="#290705"/>
<path d="M31.3344 28.7838C31.3344 28.7838 32.3004 29.1897 32.0692 29.7241C31.838 30.2584 29.2689 33.9631 28.9041 34.2971C28.5392 34.631 26.6946 37.3183 26.5405 38.0017C26.3863 38.6851 25.6053 38.5206 25.1686 38.2894C24.7318 38.0582 22.6252 36.414 22.3888 36.1365C22.3888 36.1365 22.06 35.5508 22.6663 35.5713C23.2726 35.5919 24.7318 35.7769 25.035 35.6587C25.3382 35.5405 26.8025 33.6856 26.9824 33.4338C27.1622 33.1821 29.9163 29.0972 30.0499 28.9585C30.1835 28.8197 30.7024 28.3522 31.3344 28.7941V28.7838Z" fill="#E03232"/>
<path d="M29.5665 28.6147C29.5665 28.6147 25.8156 34.3438 25.5382 34.6264C25.2607 34.909 22.3474 35.2944 21.8336 34.8217C21.3197 34.3489 22.2806 32.453 22.5221 32.0984C23.1592 31.1633 26.4631 30.1356 26.8741 29.9352C27.2852 29.7349 29.3867 28.4246 29.5665 28.6199V28.6147Z" fill="#FEFEFE"/>
<path d="M18.3905 27.2476C18.3905 27.2476 19.5106 29.457 21.8639 30.6234C21.8639 30.6234 22.8607 31.2708 22.4959 31.5277C22.1311 31.7846 21.72 31.9542 21.7611 32.2368C21.8022 32.5194 21.3963 33.8707 20.8979 33.7731C20.3995 33.6755 18.6371 32.879 18.1181 30.5103C17.5992 28.1416 17.517 27.0318 17.7739 26.8674C18.0308 26.7029 18.3853 27.2476 18.3853 27.2476H18.3905Z" fill="#FEFEFE"/>
<path d="M26.5654 38.9471C26.5654 38.9471 26.5449 39.9799 26.6939 40.6786C26.8429 41.3774 27.6445 42.5489 27.4955 42.7493C27.367 42.9189 25.9232 41.6755 25.6046 41.4751C25.286 41.2747 23.092 40.0672 21.4273 40.1083C19.7625 40.1494 17.5222 40.4217 16.7001 40.3806C15.878 40.3395 14.6449 39.7178 14.429 39.4609C14.429 39.4609 14.3725 39.0755 15.7239 39.0139C17.0752 38.9522 19.0997 37.6779 19.4028 36.9432C19.706 36.2084 19.932 35.3041 19.8498 34.8725C19.7676 34.4409 20.1735 34.3998 20.2969 34.4152C20.9802 34.4871 22.1877 36.6143 23.1794 37.2874C23.909 37.7858 25.1216 38.9522 26.5757 38.9368L26.5654 38.9471Z" fill="#FFD282"/>
<path d="M27.1103 43.0636C27.1103 43.0636 28.8059 43.8754 30.1572 43.6751C31.5085 43.4747 30.8046 47.8832 29.9414 49.4915C29.0782 51.0997 28.0043 52.4202 27.7166 52.5076C27.4288 52.5949 27.0537 50.997 26.9972 49.9642C26.9407 48.9314 26.6119 44.2043 26.653 43.7573C26.6941 43.3102 26.8893 42.9608 27.1103 43.0585V43.0636Z" fill="#FDFDFD"/>
<path d="M18.0163 40.8429C19.2648 40.7556 20.1589 40.55 21.5822 40.5757C23.0054 40.6014 25.5231 41.8551 25.6978 42.0093C25.8725 42.1634 26.2579 42.2559 26.1911 43.412C26.1243 44.5681 26.7717 52.0955 26.8591 52.4604C26.9464 52.8252 27.0235 53.303 27.0492 53.4161C27.0749 53.5291 27.0851 53.8631 26.5662 53.8785C26.0472 53.8939 21.6746 54.1971 18.6277 53.8785C15.5808 53.5599 13.7156 52.856 13.469 52.671C13.2223 52.486 13.3097 51.9774 13.284 51.741C13.2583 51.5047 13.2069 46.3819 13.397 44.3112C13.5871 42.2405 14.1061 40.6477 14.2037 40.4678C14.3013 40.288 14.4555 40.0003 15.108 40.2726C15.7606 40.5449 17.3997 40.8892 18.0163 40.8481V40.8429Z" fill="#E03232"/>
<path d="M12.7904 45.7246C12.7904 45.7246 12.7595 42.5492 13.4943 41.1157C13.4943 41.1157 14.0389 39.9545 13.8694 39.5485C13.6998 39.1426 12.9085 38.9576 12.6054 39.2608C12.3022 39.5639 12.292 40.345 12.3176 41.9892C12.3485 43.6539 12.4615 45.7657 12.7904 45.7246Z" fill="white"/>
<path d="M19.3775 34.9803C19.3775 37.868 15.6626 39.2039 12.775 39.2039C9.8873 39.2039 6.83008 37.0921 6.83008 34.2045C6.83008 31.3168 8.74148 28.4497 13.4378 28.8042C16.8855 29.0611 19.3775 32.0927 19.3775 34.9803Z" fill="#A75B1E" stroke="#2B0907" stroke-width="1.4" stroke-miterlimit="10"/>
<path d="M17.353 28.0238C17.353 28.0238 17.4918 29.37 17.5123 29.7245C17.5329 30.079 17.1578 30.0174 17.0293 29.9403C16.9009 29.8632 15.6934 28.7534 15.3594 28.7226C15.0254 28.6917 15.1539 28.4297 15.3594 28.3012C15.5649 28.1728 16.5566 27.6641 16.7621 27.7001C16.9677 27.736 17.3222 27.6949 17.353 28.0238Z" fill="#E03232"/>
<path d="M6.7891 27.3763C6.7891 27.3763 7.73452 28.3217 7.54441 30.0276C7.3543 31.7335 6.64009 33.1311 6.08003 33.1516C5.51996 33.1722 2.93546 32.0109 2.50385 30.8035C2.07224 29.596 1.53273 28.6711 1.96434 27.3763C2.39595 26.0815 2.74021 26.2356 3.01767 26.4309C3.29513 26.6261 4.3536 27.5715 4.80576 27.7873C5.25792 28.0031 5.73063 28.1111 5.88478 27.7462C6.03892 27.3814 6.22903 26.9036 6.7891 27.3814V27.3763Z" fill="#FFD282"/>
<path d="M16.0788 54.1979C16.2535 54.0592 18.4475 54.4137 19.1617 54.4908C20.066 54.5884 20.0609 55.9089 19.9736 56.8852C19.8862 57.8614 19.917 60.4048 19.9324 60.5024C19.9479 60.6001 19.7475 60.6771 19.5163 60.6874C19.285 60.6977 18.0056 59.0637 17.6511 58.7041C17.2966 58.3444 16.4899 57.8409 16.5156 57.2962C16.5412 56.7516 15.8836 54.3572 16.0839 54.1927L16.0788 54.1979Z" fill="#FEFEFD"/>
<path d="M24.3055 54.3314C23.5296 54.3879 21.9368 54.4598 21.4487 54.5163C20.9606 54.5728 20.6009 54.7013 20.4878 55.2357C20.3748 55.77 20.4005 58.1233 20.8321 59.3411C21.2637 60.5588 21.2329 61.0213 21.5514 61.0059C21.87 60.9904 24.1925 57.8048 24.4237 56.2068C24.6549 54.6088 24.9838 54.2954 24.4237 54.3262" fill="#FEFEFD"/>
</svg>
