<svg width="105" height="51" fill="none" xmlns="http://www.w3.org/2000/svg"><path d="M38.066 6.422h3.857c2.772 0 4.388 2.983 4.388 6.199 0 3.215-1.616 6.138-4.388 6.138h-.681v5.188h-3.176V6.422ZM41.4 15.41c1.04 0 1.483-1.493 1.483-2.733s-.443-2.785-1.483-2.785h-.322v5.518h.322ZM47.703 13.575h2.825v4.523l2.7-4.523h1.946V23.95H52.33v-4.504l-2.66 4.504h-1.962V13.574h-.004ZM58.643 18.598l-1.998-5.028h3.102l1.322 3.68h.605v-3.68h2.845v3.68h.604l1.322-3.68h3.103l-2 5.027 2.129 5.35h-3.14l-1.45-4.001h-.568v4h-2.845v-4h-.569l-1.45 4h-3.14l2.128-5.349ZM70.239 18.759c0-3.357 1.378-5.37 3.65-5.37.718 0 1.395.202 2.02.604v2.512c-.388-.262-.77-.383-1.177-.383-1.1 0-1.632.846-1.632 2.633s.532 2.632 1.632 2.632c.423 0 .826-.141 1.229-.423v2.532a3.632 3.632 0 0 1-2.04.624c-2.312 0-3.69-2.013-3.69-5.37l.008.009ZM80.994 19.946h-.568v4h-2.938V13.57h2.938v3.68h.604l1.338-3.68h3.103l-2.039 5.027 2.164 5.35h-3.14l-1.466-4.001h.004ZM86.941 13.575h2.825v4.523l2.7-4.523h1.947V23.95h-2.846v-4.504l-2.66 4.504h-1.962V13.574h-.004ZM96.246 13.574h2.825v4.524l2.7-4.524h1.946v10.377h-2.845v-4.504l-2.66 4.504H96.25V13.574h-.004Zm3.212-4.322c-.073.825.109 1.288.568 1.288.459 0 .661-.423.588-1.288h1.596c.258 1.891-.568 3.034-2.184 3.034s-2.458-1.127-2.184-3.034h1.616ZM43.003 38.911 38.22 28.193h5.569l2.708 6.412 2.61-6.412h5.538l-4.626 10.718 4.908 11.286h-5.602l-2.832-6.979-2.926 6.98h-5.633l5.065-11.287h.004ZM68.085 33.095h-3.147l-.44 11.221c-.156 4.589-2.707 6.537-7.615 5.816v-4.745c1.636.157 2.204-.346 2.264-1.98l.63-15.214h13.752v22.004h-5.444V33.095ZM76.988 28.193h10.824v4.463h-5.38v3.393h4.816v4.21h-4.816v5.438h5.477v4.496h-10.92V28.189v.004ZM90.93 28.193h12.778v4.306h-7.395v3.804h1.572c4.562 0 7.112 2.483 7.112 6.947s-2.55 6.947-7.112 6.947H90.93V28.193Zm6.105 17.915c1.857 0 2.768-.974 2.768-2.922 0-1.949-.91-2.923-2.768-2.923h-.786v5.849h.786v-.005Z" fill="#3A1F0C"/><path d="M11.079 41.652s.89 1.992.89 2.713c0 .72-.399.696-.552.68-.153-.016-1.132-.185-1.455 1.855-.322 2.041-.576 1.84-1.08 1.956-.503.117-2.788-.237-2.788.64 0 .878 6.588.95 8.228 1.03 1.64.081 9.176-.068 9.918-.301.74-.233 1.1-.809.91-1.163-.19-.354-1.91-.576-2.788-.471-.879.105-1.302.032-1.35-.016-.049-.049.66-1.015 1.031-1.385.371-.37 1.064-1.602.693-2.193-.37-.592-1.08-.74-1.789-.44-.709.303-1.402.862-1.926.371-.524-.49.322-2.833.455-3.002.133-.17.947-.677.947-.677l-9.776-.454.431.861v-.004Z" fill="#300E09"/><path d="M7.002 22.53s-1.032-.069-1.37-.556c-.339-.487-.472-1.823-.508-1.94-.036-.116-.37-.354-.64-.237-.27.117-.44.93-.694 1.046-.254.117-1.249-.704-1.418-1.078-.17-.375-.963-.39-1.334.233-.37.624-1.084 1.099-1.036 1.453.049.354 1.08 3.023 2.922 4.154 1.841 1.13 2.434-.153 2.434-.153l1.64-2.918.004-.004ZM22.79 21.226s5.202 1.755 5.54 5.164c.339 3.409-.576 5.333-2.333 6.178 0 0-1.33.901-1.87.966 0 0 .182 3.823-.902 5.67-1.084 1.848-1.826 2.677-1.826 2.677s-2.66.226-6.262 0c-3.603-.225-5.678-1.102-5.678-1.102s-.068-3.172-.113-3.49c0 0-.608-.833-.632-3.039-.024-2.205-.045-6.572 0-7.627.044-1.055.79-4.411 2.567-5.265 0 0 1.894-.563 2.095-2.274l.27-.314 9.135 2.452.008.004Z" fill="#300D08"/><path d="M12.624 11.07c-6.073-.232-3.486-6.342.342-7.992 1.089-.463 2.813-1.063 3.804-.105l-.044-.036c.17.116.335.233.52.322l-.302.112c.201-1.255 1.225-2.181 2.305-2.753 2.196-1.078 4.904-.66 6.93.592a7.413 7.413 0 0 1 2.225 2.037c.262.301.02.603-.177.82-.089.13-.399.56-.431.62.032-.088.008-.096.04-.012.04.13.153.483.194.62.088.274.173.552.241.83.113.43.544.808.859 1.187.318.39.794.958 1.14 1.312.185.18.463.487.564.728.42.817.726 1.767.448 2.697-.407 1.534-1.915 2.66-3.498 2.572l.133-.06c-.242.29-.617.66-.6 1.05l-.388.117c-.104-.616.383-1.07.738-1.493 1.648-.117 3.058-1.45 3.062-3.128.012-.64 0-1.405-.398-1.948-.714-.732-1.58-1.244-2.362-1.908-.484-.378-.657-1.139-.737-1.759-.045-.229-.097-.559-.137-.788-.053-.282.23-.528.37-.693.089-.112.383-.414.468-.523.008-.008-.024.012 0 .129.032.064 0 .008-.02-.016a6.743 6.743 0 0 0-2.06-1.86C23.997.622 21.523.296 19.556 1.254c-.98.467-1.656 1.369-2.228 2.25l-.117.262-.186-.15c-.165-.128-.346-.229-.527-.333-.178-.185-.44-.27-.734-.278-2.535.016-6.64 3.389-5.915 6.098.419 1.022 1.748 1.429 2.788 1.582l-.016.402.004-.016Z" fill="#3A1F0C"/><path d="M15.584 10.226s-3.47.18-4.102.519c-.633.338-1.668 1.348-1.556 2.632.113 1.284 1.645 2.882 2.096 3.534.451.652 1.418 2.318 2.365 4.274.947 1.957 1.983 2.339 3.131 2.363 1.149.024 3.514-.765 4.776-2.181 1.26-1.417 2.631-1.248 3.018-1.3.387-.053 2.08-.286 2.111-1.015.033-.728.577-1.183.81-1.384.234-.201.069-1.3-1.64-2.886-1.708-1.586-4.26-4.58-11.017-4.556h.008Z" fill="#300D08"/><path d="M27.67 17.281c-.302.258-.806.773-.846 1.61-.004.125-.262.604-1.563.773-.045.008-.105.008-.178.008-.564.024-1.89.077-3.09 1.425-1.173 1.32-3.305 1.586-4.365 1.586 0 0-1.934.265-2.873-1.675-.907-1.88-1.89-3.602-2.394-4.33-.104-.15-.257-.338-.439-.568-.564-.708-1.555-1.88-1.583-2.77-.02-.603.06-.929.7-1.017.77-.109.75.704 1.218.591 5.138-1.231 10.183.74 11.658 2.125.06.057.906 1.08 1.708 1.518 1.128.624 2.051.6 2.051.724h-.004Z" fill="#FFD282"/><path d="M14.008 11.071s2.998-.604 6.016.21c3.018.812 3.494 1.822 3.627 1.935 0 0-1.044.387-1.547.254-.504-.133-2.044-.894-3.684-1.147-1.64-.254-2.502-.069-3.195-.322-.693-.254-1.217-.93-1.217-.93Z" fill="#FEFEFE"/><path d="M15.952 16.07c-.222.587-.54.789-1.152.66-.432-.093-.686-.535-.617-1.135.476.04.741-.177.935-.692.04-.109.068-.226.085-.343.096 0 .193.02.29.049.511.157.677.881.459 1.46Z" fill="#34110C"/><path d="M15.2 14.556a1.634 1.634 0 0 1-.085.343c-.194.515-.464.732-.935.692.016-.113.036-.23.072-.346a.932.932 0 0 1 .947-.688Z" fill="#fff"/><path d="M22.325 17.945c-.383.431-.988.516-1.35.198-.246-.21-.323-.552-.23-.874.29.008.613-.124.846-.386.13-.149.214-.314.254-.487a.772.772 0 0 1 .508.197c.363.322.35.934-.028 1.357v-.005Z" fill="#34110C"/><path d="M21.846 16.392c-.04.173-.125.338-.254.487-.233.261-.556.398-.846.386.036-.173.129-.338.258-.487.23-.261.552-.398.842-.386Z" fill="#fff"/><path d="M20.316 19.105s-2.962-.057-4.135-1.148c0 0-.225.62-.1 2.037.125 1.417.169 2.262 1.229 2.137 1.06-.124 1.406-.764 1.418-.89 0 0-.878.52-1.612-.168-.733-.689-.1-1.554.012-1.679.113-.124 2.672.182 3.188-.293v.004Z" fill="#34110C"/><path d="M25.057 22.767s2.503 1.638 2.789 3.663c.286 2.024-.08 4.536-1.568 5.309-1.487.772-2.538.527-3.099-.737 0 0-.527-1.513-.427-2.21 0 0 .194-.406.464-.575.27-.17 1.023-.797 1.023-.797l-.113-.205s-1.184.958-1.712 1.147c-.528.189-1.129.201-1.262.1-.133-.1.057-.414.371-.853s2.93-3.936 3.099-4.262c.17-.326.33-.652.435-.58Z" fill="#fff"/><path d="M22.466 28.962s-.008 1.976.964 2.865c.97.89.245 1.043-.017 1.163-.261.121-1.354.322-1.922-.225-.568-.547-1.035-1.803-.866-2.902.17-1.099 1.37-1.368 1.841-.901Z" fill="#fff"/><path d="M14.7 13.743s.402-.06.757.077c.258.096.439.181.556.265l.044.029c.033.032.06-.024.06-.125l-.032-.137c-.04-.165-.133-.294-.471-.398-.62-.186-.838.189-.915.29ZM22.942 16.392s-.27-.302-.629-.43a2.574 2.574 0 0 0-.596-.154h-.052c-.049 0-.033-.06.036-.14l.113-.085c.137-.1.294-.141.616 0 .597.253.52.68.516.809h-.004Z" fill="#290705"/><path d="M24.003 21.978s.758.318.577.737c-.182.419-2.196 3.32-2.483 3.582-.286.262-1.732 2.367-1.853 2.902-.121.535-.734.406-1.076.225-.343-.18-1.995-1.469-2.18-1.686 0 0-.258-.459.217-.443.476.016 1.62.161 1.858.069.238-.093 1.386-1.546 1.527-1.743.141-.197 2.301-3.397 2.406-3.506.105-.108.512-.475 1.008-.129v-.008Z" fill="#E03232"/><path d="M22.615 21.85s-2.942 4.487-3.16 4.709c-.217.221-2.502.523-2.905.153-.402-.37.351-1.856.54-2.134.5-.732 3.091-1.537 3.414-1.694.322-.157 1.97-1.183 2.111-1.03v-.005ZM13.852 20.775s.878 1.73 2.724 2.644c0 0 .782.507.496.709-.286.2-.609.334-.576.555.032.221-.287 1.28-.677 1.204-.391-.077-1.774-.7-2.18-2.556-.408-1.856-.472-2.725-.27-2.854.2-.129.479.298.479.298h.004Z" fill="#FEFEFE"/><path d="M20.265 29.94s-.017.809.1 1.356.746 1.465.629 1.622c-.1.133-1.233-.841-1.483-.998-.25-.157-1.97-1.103-3.276-1.07-1.306.031-3.063.245-3.707.212-.645-.032-1.612-.519-1.782-.72 0 0-.044-.302 1.016-.35 1.06-.048 2.647-1.047 2.885-1.622.238-.576.415-1.284.35-1.622-.064-.338.255-.37.351-.358.536.056 1.483 1.722 2.26 2.25.573.39 1.524 1.304 2.665 1.291l-.008.009Z" fill="#FFD282"/><path d="M20.69 33.163s1.33.637 2.39.48c1.059-.157.507 3.296-.17 4.556-.677 1.26-1.52 2.294-1.745 2.362-.226.069-.52-1.183-.564-1.992-.044-.809-.302-4.512-.27-4.862.032-.35.185-.624.358-.547v.004Z" fill="#FDFDFD"/><path d="M13.56 31.425c.98-.069 1.68-.23 2.797-.21 1.116.02 3.09 1.003 3.227 1.123.137.121.44.194.387 1.1-.052.905.456 6.801.524 7.087.069.286.129.66.15.749.02.088.027.35-.38.362-.407.012-3.836.25-6.226 0s-3.852-.801-4.045-.946c-.194-.145-.125-.543-.145-.728-.02-.186-.06-4.198.088-5.82.15-1.623.556-2.87.633-3.011.076-.14.197-.366.71-.153.511.213 1.796.483 2.28.45v-.003Z" fill="#E03232"/><path d="M9.464 35.248s-.024-2.487.552-3.61c0 0 .427-.91.294-1.228-.133-.317-.754-.462-.991-.225-.238.238-.246.85-.226 2.137.024 1.304.113 2.959.37 2.926Z" fill="#fff"/><path d="M14.63 26.832c0 2.262-2.914 3.309-5.179 3.309-2.264 0-4.662-1.654-4.662-3.916s1.5-4.508 5.182-4.23c2.704.2 4.659 2.575 4.659 4.837Z" fill="#A75B1E" stroke="#2B0907" stroke-width="1.4" stroke-miterlimit="10"/><path d="M13.037 21.383s.109 1.054.125 1.332-.278.23-.379.169c-.1-.06-1.048-.93-1.31-.954-.262-.024-.16-.23 0-.33.161-.1.94-.5 1.1-.47.162.027.44-.005.464.253Z" fill="#E03232"/><path d="M4.752 20.875s.742.741.592 2.077c-.149 1.337-.709 2.431-1.148 2.447-.44.017-2.466-.893-2.805-1.839-.338-.946-.761-1.67-.423-2.684.339-1.015.609-.894.826-.741.218.153 1.048.893 1.403 1.063.354.169.725.253.846-.033.12-.285.27-.66.71-.285v-.005Z" fill="#FFD282"/><path d="M12.041 41.89c.137-.11 1.858.169 2.418.229.71.076.705 1.11.637 1.876-.069.764-.044 2.757-.032 2.833.012.076-.145.137-.327.145-.181.008-1.184-1.272-1.463-1.554-.277-.281-.91-.676-.89-1.102.02-.427-.496-2.303-.338-2.432l-.005.005ZM18.492 41.99c-.608.044-1.858.1-2.24.145-.383.044-.665.145-.754.564-.089.418-.068 2.261.27 3.215.338.954.314 1.316.564 1.304.25-.012 2.071-2.507 2.253-3.759.181-1.252.439-1.497 0-1.473" fill="#FEFEFD"/></svg>