<svg width="105" height="51" viewBox="0 0 105 51" fill="none" xmlns="http://www.w3.org/2000/svg">
<path d="M38.0674 6.42221H41.9238C44.6962 6.42221 46.3121 9.40465 46.3121 12.6205C46.3121 15.8364 44.6962 18.7585 41.9238 18.7585H41.2428V23.9465H38.0674V6.42221ZM41.3999 15.4098C42.4396 15.4098 42.8829 13.9165 42.8829 12.6769C42.8829 11.4372 42.4396 9.89166 41.3999 9.89166H41.0776V15.4098H41.3999Z" fill="#3A1F0C"/>
<path d="M47.7021 13.5744H50.527V18.0984L53.2269 13.5744H55.1732V23.9506H52.3282V19.4467L49.6686 23.9506H47.7062V13.5744H47.7021Z" fill="#3A1F0C"/>
<path d="M58.6433 18.5975L56.6446 13.5704H59.7474L61.0692 17.2491H61.6736V13.5704H64.5186V17.2491H65.123L66.4448 13.5704H69.5476L67.5489 18.5975L69.6766 23.9465H66.5375L65.0868 19.9458H64.5186V23.9465H61.6736V19.9458H61.1054L59.6548 23.9465H56.5156L58.6433 18.5975Z" fill="#3A1F0C"/>
<path d="M70.2405 18.7585C70.2405 15.4017 71.6186 13.3893 73.8914 13.3893C74.6087 13.3893 75.2857 13.5905 75.9103 13.993V16.5045C75.5234 16.2429 75.1406 16.1222 74.7336 16.1222C73.6335 16.1222 73.1016 16.9674 73.1016 18.7544C73.1016 20.5415 73.6335 21.3867 74.7336 21.3867C75.1567 21.3867 75.5597 21.2458 75.9626 20.9641V23.4958C75.3219 23.9184 74.6409 24.1196 73.9236 24.1196C71.6106 24.1196 70.2324 22.1072 70.2324 18.7504L70.2405 18.7585Z" fill="#3A1F0C"/>
<path d="M80.9961 19.9458H80.4279V23.9465H77.4902V13.5704H80.4279V17.2491H81.0323L82.3702 13.5704H85.4731L83.434 18.5975L85.598 23.9465H82.4588L80.992 19.9458H80.9961Z" fill="#3A1F0C"/>
<path d="M86.9434 13.5744H89.7682V18.0984L92.4681 13.5744H94.4144V23.9506H91.5694V19.4467L88.9099 23.9506H86.9474V13.5744H86.9434Z" fill="#3A1F0C"/>
<path d="M96.248 13.5744H99.0729V18.0984L101.773 13.5744H103.719V23.9506H100.874V19.4467L98.2145 23.9506H96.2521V13.5744H96.248ZM99.4597 9.25171C99.3872 10.0768 99.5685 10.5397 100.028 10.5397C100.487 10.5397 100.689 10.1171 100.616 9.25171H102.212C102.47 11.1434 101.644 12.2865 100.028 12.2865C98.412 12.2865 97.5698 11.1595 97.8438 9.25171H99.4597Z" fill="#3A1F0C"/>
<path d="M43.0029 38.9114L38.2197 28.1932H43.7887L46.4967 34.6048L49.1079 28.1932H54.6447L50.0186 38.9114L54.9268 50.1972H49.3255L46.4927 43.2181L43.5671 50.1972H37.9336L42.9989 38.9114H43.0029Z" fill="#3A1F0C"/>
<path d="M68.0834 33.0951H64.9362L64.497 44.3165C64.3398 48.9048 61.789 50.8529 56.8809 50.1324V45.3871C58.5169 45.5441 59.0851 45.0409 59.1456 43.4068L59.7742 28.1928H73.5275V50.1968H68.0834V33.0991V33.0951Z" fill="#3A1F0C"/>
<path d="M76.9893 28.1928H87.813V32.6564H82.4334V36.0493H87.2489V40.2594H82.4334V45.697H87.9097V50.1928H76.9893V28.1888V28.1928Z" fill="#3A1F0C"/>
<path d="M90.9316 28.1928H103.71V32.4994H96.3153V36.3029H97.8869C102.449 36.3029 104.999 38.7863 104.999 43.2499C104.999 47.7135 102.449 50.1968 97.8869 50.1968H90.9316V28.1928ZM97.0366 46.1075C98.8943 46.1075 99.805 45.1335 99.805 43.1855C99.805 41.2374 98.8943 40.2634 97.0366 40.2634H96.2508V46.1116H97.0366V46.1075Z" fill="#3A1F0C"/>
<path d="M11.0795 41.652C11.0795 41.652 11.97 43.6443 11.97 44.3647C11.97 45.0852 11.5711 45.061 11.418 45.045C11.2648 45.0289 10.2856 44.8598 9.96323 46.9004C9.64086 48.941 9.38699 48.7398 8.88327 48.8565C8.37956 48.9732 6.09473 48.619 6.09473 49.4965C6.09473 50.3739 12.6833 50.4463 14.3234 50.5268C15.9634 50.6073 23.499 50.4584 24.2404 50.225C24.9819 49.9915 25.3405 49.416 25.1511 49.0618C24.9617 48.7076 23.2411 48.4862 22.3626 48.5909C21.4841 48.6955 21.061 48.6231 21.0126 48.5748C20.9643 48.5265 21.6735 47.5605 22.0442 47.1902C22.415 46.8199 23.1081 45.5883 22.7374 44.9967C22.3666 44.405 21.6574 44.2561 20.9482 44.5579C20.2389 44.8598 19.5458 45.4193 19.022 44.9282C18.4981 44.4372 19.3444 42.0947 19.4773 41.9257C19.6103 41.7566 20.4243 41.2495 20.4243 41.2495L10.6483 40.7947L11.0795 41.656V41.652Z" fill="#300E09"/>
<path d="M7.00192 22.5298C7.00192 22.5298 5.97031 22.4613 5.63182 21.9743C5.29333 21.4873 5.16035 20.1511 5.12408 20.0343C5.08781 19.9176 4.75335 19.6801 4.48336 19.7969C4.21337 19.9136 4.04412 20.7266 3.79025 20.8433C3.53638 20.9601 2.54105 20.139 2.3718 19.7647C2.20255 19.3904 1.4087 19.3743 1.03797 19.9981C0.667238 20.622 -0.046017 21.0969 0.00233929 21.4511C0.0506956 21.8053 1.0823 24.4738 2.92387 25.6048C4.76544 26.7358 5.3578 25.4518 5.3578 25.4518L6.99789 22.5338L7.00192 22.5298Z" fill="#300D08"/>
<path d="M22.7904 21.2257C22.7904 21.2257 27.9928 22.9806 28.3312 26.3896C28.6697 29.7987 27.755 31.7226 25.9981 32.5678C25.9981 32.5678 24.6683 33.4694 24.1283 33.5338C24.1283 33.5338 24.3096 37.3574 23.2256 39.2049C22.1416 41.0523 21.4002 41.8814 21.4002 41.8814C21.4002 41.8814 18.7406 42.1068 15.138 41.8814C11.5355 41.656 9.46019 40.7786 9.46019 40.7786C9.46019 40.7786 9.39169 37.607 9.34736 37.289C9.34736 37.289 8.73888 36.4559 8.7147 34.2502C8.69052 32.0446 8.67037 27.6776 8.7147 26.6231C8.75903 25.5686 9.50452 22.2118 11.2816 21.3585C11.2816 21.3585 13.1756 20.7951 13.3771 19.0845L13.647 18.7705L22.7824 21.2217L22.7904 21.2257Z" fill="#300D08"/>
<path d="M12.623 11.0709C6.55027 10.8375 9.13733 4.72773 12.9655 3.07752C14.0536 2.61466 15.7783 2.01496 16.7696 2.97288L16.7252 2.93665C16.8945 3.05337 17.0597 3.1701 17.2451 3.25864L16.9428 3.37134C17.1443 2.11558 18.1679 1.18986 19.2478 0.618322C21.444 -0.460345 24.152 -0.0417577 26.1789 1.20998C27.0413 1.72919 27.819 2.42147 28.4033 3.24657C28.6652 3.54844 28.4234 3.8503 28.226 4.06764C28.1373 4.19644 27.827 4.6271 27.7948 4.68748C27.827 4.59893 27.8029 4.59088 27.8351 4.6754C27.8754 4.8042 27.9882 5.15839 28.0285 5.29523C28.1172 5.56892 28.2018 5.84664 28.2703 6.12436C28.3831 6.55502 28.8143 6.93336 29.1286 7.3117C29.447 7.70211 29.9225 8.26962 30.269 8.62381C30.4544 8.80493 30.7325 9.11082 30.8332 9.35231C31.2523 10.1694 31.5585 11.1192 31.2805 12.049C30.8735 13.5825 29.3664 14.7094 27.7827 14.6209L27.9157 14.5605C27.6739 14.8503 27.2992 15.2206 27.3153 15.611L26.9284 15.7277C26.8237 15.1119 27.3112 14.6571 27.6659 14.2345C29.314 14.1178 30.7244 12.7855 30.7284 11.1072C30.7405 10.4672 30.7284 9.70248 30.3295 9.15912C29.6162 8.42659 28.7498 7.91543 27.9681 7.25132C27.4845 6.87299 27.3112 6.11228 27.2307 5.49245C27.1863 5.26303 27.1339 4.93299 27.0936 4.70358C27.0413 4.42183 27.3233 4.17632 27.4644 4.0113C27.553 3.8986 27.8472 3.59673 27.9318 3.48806C27.9399 3.48001 27.9076 3.50014 27.9318 3.61686C27.9641 3.68126 27.9318 3.62491 27.9117 3.60076C27.3677 2.84006 26.6584 2.22022 25.8525 1.74126C23.9948 0.622347 21.5206 0.296332 19.5541 1.25425C18.5749 1.72114 17.8979 2.62271 17.3257 3.50416L17.2088 3.76578L17.0234 3.61686C16.8582 3.48806 16.6769 3.38744 16.4955 3.28279C16.3182 3.09765 16.0563 3.01313 15.7621 3.00508C13.2275 3.02118 9.12121 6.39403 9.84656 9.10277C10.2656 10.1251 11.5954 10.5316 12.6351 10.6845L12.619 11.087L12.623 11.0709Z" fill="#3A1F0C"/>
<path d="M15.5851 10.2257C15.5851 10.2257 12.1156 10.4069 11.4829 10.7449C10.8503 11.083 9.81462 12.0933 9.92745 13.3772C10.0403 14.6611 11.5716 16.259 12.0229 16.9111C12.4742 17.5631 13.4413 19.2294 14.3883 21.1855C15.3353 23.1416 16.3709 23.5239 17.5194 23.5481C18.6679 23.5722 21.0333 22.7834 22.2946 21.3666C23.5559 19.9498 24.926 20.1189 25.3128 20.0666C25.6997 20.0142 27.3921 19.7808 27.4244 19.0523C27.4566 18.3238 28.0006 17.869 28.2343 17.6677C28.4681 17.4665 28.3029 16.3677 26.5943 14.7819C24.8857 13.1961 22.3349 10.2016 15.5771 10.2257H15.5851Z" fill="#300D08"/>
<path d="M27.6703 17.2813C27.3681 17.5389 26.8644 18.0541 26.8241 18.8913C26.8201 19.0161 26.5622 19.495 25.2606 19.6641C25.2162 19.6721 25.1558 19.6721 25.0833 19.6721C24.5191 19.6963 23.1933 19.7486 21.9925 21.0969C20.8198 22.4171 18.6881 22.6827 17.6283 22.6827C17.6283 22.6827 15.6941 22.9484 14.7552 21.0084C13.8485 19.1288 12.8652 17.4061 12.3615 16.6776C12.2567 16.5287 12.1036 16.3395 11.9223 16.1101C11.3581 15.4017 10.3668 14.2305 10.3386 13.341C10.3185 12.7372 10.3991 12.4112 11.0398 12.3227C11.8094 12.214 11.7893 13.027 12.2567 12.9143C17.3946 11.6827 22.4398 13.6549 23.9146 15.0395C23.9751 15.0958 24.8213 16.1181 25.6232 16.5569C26.7515 17.1807 27.6743 17.1566 27.6743 17.2813H27.6703Z" fill="#FFD282"/>
<path d="M14.0059 11.0709C14.0059 11.0709 17.004 10.4672 20.0222 11.2802C23.0404 12.0933 23.5159 13.1035 23.6489 13.2162C23.6489 13.2162 22.6052 13.6026 22.1015 13.4698C21.5978 13.337 20.0585 12.5763 18.4184 12.3227C16.7783 12.0691 15.9159 12.2543 15.2228 12.0007C14.5297 11.7471 14.0059 11.0709 14.0059 11.0709Z" fill="#FEFEFE"/>
<path d="M15.952 16.0698C15.7304 16.6575 15.412 16.8587 14.7995 16.7299C14.3683 16.6374 14.1145 16.1946 14.183 15.5949C14.6585 15.6352 14.9244 15.4178 15.1179 14.9026C15.1582 14.794 15.1864 14.6772 15.2025 14.5605C15.2992 14.5605 15.3959 14.5806 15.4926 14.6088C16.0044 14.7658 16.1696 15.4903 15.952 16.0698Z" fill="#34110C"/>
<path d="M15.1982 14.5565C15.1821 14.6732 15.1539 14.7899 15.1136 14.8986C14.9202 15.4138 14.6502 15.6311 14.1787 15.5909C14.1948 15.4782 14.215 15.3615 14.2512 15.2447C14.3963 14.7698 14.7872 14.5444 15.1982 14.5565Z" fill="white"/>
<path d="M22.3228 17.9455C21.94 18.3761 21.3355 18.4607 20.9728 18.1427C20.727 17.9334 20.6505 17.5913 20.7431 17.2693C21.0333 17.2773 21.3557 17.1445 21.5894 16.8829C21.7183 16.734 21.803 16.569 21.8433 16.3959C22.0286 16.3999 22.21 16.4643 22.351 16.5931C22.7137 16.9151 22.7016 17.5269 22.3228 17.9495V17.9455Z" fill="#34110C"/>
<path d="M21.8433 16.3918C21.803 16.5649 21.7183 16.7299 21.5894 16.8788C21.3557 17.1404 21.0333 17.2773 20.7432 17.2652C20.7794 17.0921 20.8721 16.9271 21.0011 16.7782C21.2308 16.5166 21.5531 16.3797 21.8433 16.3918Z" fill="white"/>
<path d="M20.3159 19.1046C20.3159 19.1046 17.354 19.0482 16.1814 17.9575C16.1814 17.9575 15.9557 18.5773 16.0807 19.9941C16.2056 21.4109 16.2499 22.2561 17.3097 22.1313C18.3695 22.0065 18.7161 21.3666 18.7282 21.2418C18.7282 21.2418 17.8497 21.761 17.1163 21.0728C16.3829 20.3845 17.0155 19.5192 17.1284 19.3944C17.2412 19.2696 19.8001 19.5755 20.3159 19.1006V19.1046Z" fill="#34110C"/>
<path d="M25.0553 22.7672C25.0553 22.7672 27.5577 24.4054 27.8438 26.4299C28.1299 28.4544 27.7632 30.9659 26.2763 31.7387C24.7893 32.5115 23.7375 32.266 23.1774 31.0021C23.1774 31.0021 22.6495 29.4888 22.7503 28.7925C22.7503 28.7925 22.9437 28.386 23.2137 28.2169C23.4837 28.0479 24.2372 27.42 24.2372 27.42L24.1244 27.2147C24.1244 27.2147 22.9397 28.1726 22.4118 28.3618C21.8839 28.551 21.2835 28.5631 21.1505 28.4624C21.0175 28.3618 21.2069 28.0479 21.5212 27.6092C21.8355 27.1705 24.4508 23.6728 24.62 23.3468C24.7893 23.0208 24.9505 22.6948 25.0553 22.7672Z" fill="white"/>
<path d="M22.4675 28.9615C22.4675 28.9615 22.4594 30.9377 23.4306 31.8272C24.4018 32.7167 23.6764 32.8697 23.4145 32.9904C23.1526 33.1112 22.0605 33.3124 21.4923 32.765C20.9241 32.2176 20.4567 30.9619 20.6259 29.8631C20.7952 28.7643 21.996 28.4946 22.4675 28.9615Z" fill="white"/>
<path d="M14.6982 13.7434C14.6982 13.7434 15.1012 13.6831 15.4558 13.8199C15.7137 13.9165 15.8951 14.001 16.0119 14.0856L16.0562 14.1137C16.0885 14.1459 16.1167 14.0896 16.1167 13.989L16.0845 13.8521C16.0442 13.6871 15.9515 13.5583 15.613 13.4537C14.9924 13.2685 14.7748 13.6428 14.6982 13.7434Z" fill="#290705"/>
<path d="M22.943 16.3918C22.943 16.3918 22.673 16.09 22.3144 15.9612C22.0524 15.8686 21.859 15.8203 21.718 15.8082H21.6656C21.6172 15.8082 21.6333 15.7478 21.7018 15.6673L21.8147 15.5828C21.9517 15.4822 22.1088 15.4419 22.4312 15.5828C23.0276 15.8364 22.951 16.263 22.947 16.3918H22.943Z" fill="#290705"/>
<path d="M24.0035 21.9784C24.0035 21.9784 24.7611 22.2963 24.5797 22.7149C24.3984 23.1335 22.3836 26.0354 22.0974 26.297C21.8113 26.5587 20.3647 28.6637 20.2438 29.199C20.1229 29.7343 19.5104 29.6055 19.1679 29.4244C18.8253 29.2433 17.1732 27.9553 16.9878 27.738C16.9878 27.738 16.7299 27.2791 17.2054 27.2952C17.6809 27.3113 18.8253 27.4562 19.0631 27.3636C19.3008 27.2711 20.4493 25.8181 20.5903 25.6209C20.7314 25.4237 22.8913 22.2239 22.9961 22.1152C23.1008 22.0065 23.5078 21.6403 24.0035 21.9864V21.9784Z" fill="#E03232"/>
<path d="M22.6171 21.8496C22.6171 21.8496 19.6754 26.3373 19.4578 26.5587C19.2402 26.78 16.9554 27.0819 16.5524 26.7116C16.1494 26.3413 16.903 24.8562 17.0924 24.5784C17.5921 23.8459 20.1831 23.0409 20.5055 22.884C20.8279 22.727 22.476 21.7006 22.6171 21.8536V21.8496Z" fill="#FEFEFE"/>
<path d="M13.852 20.7749C13.852 20.7749 14.7305 22.5056 16.5761 23.4193C16.5761 23.4193 17.3578 23.9264 17.0717 24.1276C16.7856 24.3289 16.4632 24.4617 16.4955 24.6831C16.5277 24.9044 16.2094 25.963 15.8185 25.8865C15.4276 25.81 14.0454 25.1862 13.6384 23.3307C13.2314 21.4752 13.167 20.6059 13.3684 20.4771C13.5699 20.3483 13.848 20.7749 13.848 20.7749H13.852Z" fill="#FEFEFE"/>
<path d="M20.2635 29.9396C20.2635 29.9396 20.2474 30.7486 20.3643 31.296C20.4811 31.8433 21.1098 32.761 20.9929 32.918C20.8921 33.0508 19.7598 32.0768 19.51 31.9198C19.2601 31.7628 17.5394 30.817 16.2338 30.8492C14.9282 30.8814 13.1713 31.0947 12.5265 31.0625C11.8818 31.0303 10.9146 30.5433 10.7454 30.3421C10.7454 30.3421 10.7011 30.0402 11.7609 29.9919C12.8207 29.9436 14.4084 28.9454 14.6461 28.3699C14.8839 27.7943 15.0612 27.0859 14.9967 26.7478C14.9322 26.4097 15.2506 26.3776 15.3473 26.3896C15.8832 26.446 16.8302 28.1123 17.6079 28.6395C18.1802 29.0299 19.1312 29.9436 20.2716 29.9315L20.2635 29.9396Z" fill="#FFD282"/>
<path d="M20.6905 33.1635C20.6905 33.1635 22.0203 33.7994 23.0801 33.6425C24.1399 33.4855 23.5879 36.9388 22.9109 38.1986C22.2339 39.4584 21.3917 40.4928 21.166 40.5612C20.9404 40.6297 20.6462 39.3779 20.6019 38.5689C20.5575 37.7599 20.2996 34.057 20.3319 33.7069C20.3641 33.3567 20.5172 33.083 20.6905 33.1595V33.1635Z" fill="#FDFDFD"/>
<path d="M13.562 31.4248C14.5412 31.3563 15.2423 31.1953 16.3586 31.2155C17.4748 31.2356 19.4493 32.2177 19.5863 32.3384C19.7234 32.4592 20.0256 32.5316 19.9732 33.4372C19.9208 34.3428 20.4285 40.2393 20.4971 40.525C20.5656 40.8108 20.626 41.1851 20.6462 41.2736C20.6663 41.3622 20.6744 41.6238 20.2674 41.6359C19.8604 41.648 16.4311 41.8854 14.0415 41.6359C11.6519 41.3863 10.1891 40.8349 9.99567 40.69C9.80225 40.5451 9.87075 40.1467 9.8506 39.9615C9.83045 39.7764 9.79016 35.7636 9.93926 34.1416C10.0884 32.5195 10.4954 31.2718 10.5719 31.1309C10.6485 30.9901 10.7694 30.7647 11.2811 30.978C11.7929 31.1913 13.0784 31.461 13.562 31.4288V31.4248Z" fill="#E03232"/>
<path d="M9.46377 35.2484C9.46377 35.2484 9.43959 32.761 10.0158 31.6381C10.0158 31.6381 10.443 30.7284 10.31 30.4105C10.177 30.0925 9.55645 29.9476 9.3187 30.1851C9.08095 30.4226 9.07289 31.0343 9.09304 32.3223C9.11721 33.6264 9.20587 35.2806 9.46377 35.2484Z" fill="white"/>
<path d="M14.6305 26.8324C14.6305 29.0944 11.7171 30.1408 9.45239 30.1408C7.18771 30.1408 4.79004 28.4866 4.79004 26.2246C4.79004 23.9626 6.28908 21.7168 9.97222 21.9945C12.6761 22.1957 14.6305 24.5704 14.6305 26.8324Z" fill="#A75B1E" stroke="#2B0907" stroke-width="1.4" stroke-miterlimit="10"/>
<path d="M13.0388 21.3827C13.0388 21.3827 13.1476 22.4372 13.1638 22.7149C13.1799 22.9926 12.8857 22.9443 12.785 22.884C12.6842 22.8236 11.7372 21.9542 11.4753 21.9301C11.2134 21.9059 11.3141 21.7006 11.4753 21.6C11.6365 21.4994 12.4142 21.1009 12.5754 21.1291C12.7366 21.1573 13.0147 21.1251 13.0388 21.3827Z" fill="#E03232"/>
<path d="M4.75305 20.8755C4.75305 20.8755 5.49452 21.6161 5.34542 22.9524C5.19632 24.2886 4.63619 25.3834 4.19695 25.3995C3.75772 25.4156 1.73078 24.506 1.39229 23.5601C1.05379 22.6143 0.630677 21.8898 0.969171 20.8755C1.30766 19.8613 1.57765 19.982 1.79526 20.135C2.01286 20.2879 2.84298 21.0285 3.19759 21.1975C3.5522 21.3666 3.92294 21.4511 4.04383 21.1653C4.16472 20.8796 4.31382 20.5053 4.75305 20.8796V20.8755Z" fill="#FFD282"/>
<path d="M12.0395 41.8894C12.1765 41.7808 13.8972 42.0585 14.4573 42.1189C15.1665 42.1953 15.1625 43.2297 15.094 43.9944C15.0255 44.7592 15.0497 46.7515 15.0617 46.828C15.0738 46.9044 14.9167 46.9648 14.7353 46.9729C14.554 46.9809 13.5506 45.701 13.2726 45.4193C12.9945 45.1375 12.3619 44.7431 12.382 44.3164C12.4022 43.8898 11.8864 42.0142 12.0435 41.8854L12.0395 41.8894Z" fill="#FEFEFD"/>
<path d="M18.4901 41.9901C17.8816 42.0343 16.6324 42.0907 16.2496 42.135C15.8667 42.1792 15.5847 42.2799 15.496 42.6984C15.4074 43.117 15.4275 44.9604 15.766 45.9143C16.1045 46.8682 16.0803 47.2305 16.3302 47.2184C16.58 47.2063 18.4014 44.7109 18.5828 43.4592C18.7641 42.2074 19.022 41.9619 18.5828 41.986" fill="#FEFEFD"/>
</svg>
