<svg width="30" height="23" viewBox="0 0 30 23" fill="none" xmlns="http://www.w3.org/2000/svg">
<path d="M30 11.7286C30 11.1076 29.496 10.6036 28.875 10.6036H1.125C0.504 10.6036 0 11.1076 0 11.7286C0 12.3496 0.504 12.8536 1.125 12.8536H28.875C29.496 12.8536 30 12.3496 30 11.7286ZM30 1.97864C30 1.35764 29.496 0.853638 28.875 0.853638H1.125C0.504 0.853638 0 1.35764 0 1.97864C0 2.59964 0.504 3.10364 1.125 3.10364H28.875C29.496 3.10364 30 2.59964 30 1.97864Z" fill="#643519"/>
<path d="M28.875 19.8195C29.496 19.8195 30 20.3235 30 20.9445C30 21.5655 29.496 22.0695 28.875 22.0695H1.125C0.504 22.0695 0 21.5655 0 20.9445C0 20.3235 0.504 19.8195 1.125 19.8195H28.875Z" fill="#643519"/>
</svg>
